HIERARCHY
ROOT hip
{
  OFFSET 0 0 0
  CHANNELS 6 Xposition Yposition Zposition Zrotation Yrotation Xrotation
  JOINT abdomen
  {
    OFFSET 0 20.6881 -0.73152
    CHANNELS 3 Zrotation Xrotation Yrotation
    JOINT chest
    {
      OFFSET 0 11.7043 -0.48768
      CHANNELS 3 Zrotation Xrotation Yrotation
      JOINT neck
      {
        OFFSET 0 22.1894 -2.19456
        CHANNELS 3 Zrotation Xrotation Yrotation
        JOINT head
        {
          OFFSET -0.24384 7.07133 1.2192
          CHANNELS 3 Zrotation Xrotation Yrotation
          JOINT leftEye
          {
            OFFSET 4.14528 8.04674 8.04672
            CHANNELS 3 Zrotation Xrotation Yrotation
            End Site
            {
              OFFSET 1 0 0
            }
          }
          JOINT rightEye
          {
            OFFSET -3.6576 8.04674 8.04672
            CHANNELS 3 Zrotation Xrotation Yrotation
            End Site
            {
              OFFSET 1 0 0
            }
          }
        }
      }
      JOINT rCollar
      {
        OFFSET -2.68224 19.2634 -4.8768
        CHANNELS 3 Zrotation Xrotation Yrotation
        JOINT rShldr
        {
          OFFSET -8.77824 -1.95073 1.46304
          CHANNELS 3 Zrotation Xrotation Yrotation
          JOINT rForeArm
          {
            OFFSET -28.1742 -1.7115 0.48768
            CHANNELS 3 Zrotation Xrotation Yrotation
            JOINT rHand
            {
              OFFSET -22.5879 0.773209 7.07136
              CHANNELS 3 Zrotation Xrotation Yrotation
              JOINT rThumb1
              {
                OFFSET -1.2192 -0.487915 3.41376
                CHANNELS 3 Zrotation Xrotation Yrotation
                JOINT rThumb2
                {
                  OFFSET -3.37035 -0.52449 3.41376
                  CHANNELS 3 Zrotation Xrotation Yrotation
                  End Site
                  {
                    OFFSET -1.78271 -1.18214 1.43049
                  }
                }
              }
              JOINT rIndex1
              {
                OFFSET -7.75947 0.938293 5.60832
                CHANNELS 3 Zrotation Xrotation Yrotation
                JOINT rIndex2
                {
                  OFFSET -2.54057 -0.884171 1.56538
                  CHANNELS 3 Zrotation Xrotation Yrotation
                  End Site
                  {
                    OFFSET -1.62519 -0.234802 1.16502
                  }
                }
              }
              JOINT rMid1
              {
                OFFSET -8.24714 1.18213 3.41376
                CHANNELS 3 Zrotation Xrotation Yrotation
                JOINT rMid2
                {
                  OFFSET -3.10165 -0.590103 1.0647
                  CHANNELS 3 Zrotation Xrotation Yrotation
                  End Site
                  {
                    OFFSET -2.48547 -0.328903 0.83742
                  }
                }
              }
              JOINT rRing1
              {
                OFFSET -8.82822 0.546677 1.51678
                CHANNELS 3 Zrotation Xrotation Yrotation
                JOINT rRing2
                {
                  OFFSET -2.60934 -0.819778 -0.0198488
                  CHANNELS 3 Zrotation Xrotation Yrotation
                  End Site
                  {
                    OFFSET -2.33842 -0.294052 0.168128
                  }
                }
              }
              JOINT rPinky1
              {
                OFFSET -8.27202 -0.0477905 -0.4584
                CHANNELS 3 Zrotation Xrotation Yrotation
                JOINT rPinky2
                {
                  OFFSET -1.82734 -0.647385 -0.700984
                  CHANNELS 3 Zrotation Xrotation Yrotation
                  End Site
                  {
                    OFFSET -1.69225 -0.51767 -0.607171
                  }
                }
              }
            }
          }
        }
      }
      JOINT lCollar
      {
        OFFSET 2.68224 19.2634 -4.8768
        CHANNELS 3 Zrotation Xrotation Yrotation
        JOINT lShldr
        {
          OFFSET 8.77824 -1.95073 1.46304
          CHANNELS 3 Zrotation Xrotation Yrotation
          JOINT lForeArm
          {
            OFFSET 28.1742 -1.7115 0.48768
            CHANNELS 3 Zrotation Xrotation Yrotation
            JOINT lHand
            {
              OFFSET 22.5879 0.773209 7.07136
              CHANNELS 3 Zrotation Xrotation Yrotation
              JOINT lThumb1
              {
                OFFSET 1.2192 -0.487915 3.41376
                CHANNELS 3 Zrotation Xrotation Yrotation
                JOINT lThumb2
                {
                  OFFSET 3.37035 -0.52449 3.41376
                  CHANNELS 3 Zrotation Xrotation Yrotation
                  End Site
                  {
                    OFFSET 1.78271 -1.18214 1.43049
                  }
                }
              }
              JOINT lIndex1
              {
                OFFSET 7.75947 0.938293 5.60832
                CHANNELS 3 Zrotation Xrotation Yrotation
                JOINT lIndex2
                {
                  OFFSET 2.54057 -0.884171 1.56538
                  CHANNELS 3 Zrotation Xrotation Yrotation
                  End Site
                  {
                    OFFSET 1.62519 -0.234802 1.16502
                  }
                }
              }
              JOINT lMid1
              {
                OFFSET 8.24714 1.18213 3.41376
                CHANNELS 3 Zrotation Xrotation Yrotation
                JOINT lMid2
                {
                  OFFSET 3.10165 -0.590103 1.0647
                  CHANNELS 3 Zrotation Xrotation Yrotation
                  End Site
                  {
                    OFFSET 2.48547 -0.328903 0.83742
                  }
                }
              }
              JOINT lRing1
              {
                OFFSET 8.82822 0.546677 1.51678
                CHANNELS 3 Zrotation Xrotation Yrotation
                JOINT lRing2
                {
                  OFFSET 2.60934 -0.819778 -0.0198488
                  CHANNELS 3 Zrotation Xrotation Yrotation
                  End Site
                  {
                    OFFSET 2.33842 -0.294052 0.168128
                  }
                }
              }
              JOINT lPinky1
              {
                OFFSET 8.27202 -0.0477905 -0.4584
                CHANNELS 3 Zrotation Xrotation Yrotation
                JOINT lPinky2
                {
                  OFFSET 1.82734 -0.647385 -0.700984
                  CHANNELS 3 Zrotation Xrotation Yrotation
                  End Site
                  {
                    OFFSET 1.69225 -0.51767 -0.607171
                  }
                }
              }
            }
          }
        }
      }
    }
  }
  JOINT rButtock
  {
    OFFSET -8.77824 4.35084 1.2192
    CHANNELS 3 Zrotation Xrotation Yrotation
    JOINT rThigh
    {
      OFFSET 0 -1.70687 -2.19456
      CHANNELS 3 Zrotation Xrotation Yrotation
      JOINT rShin
      {
        OFFSET 0 -36.8199 0.73152
        CHANNELS 3 Zrotation Xrotation Yrotation
        JOINT rFoot
        {
          OFFSET 0.73152 -45.1104 -5.12064
          CHANNELS 3 Zrotation Xrotation Yrotation
          End Site
          {
            OFFSET -1.1221 -3.69964 12.103
          }
        }
      }
    }
  }
  JOINT lButtock
  {
    OFFSET 8.77824 4.35084 1.2192
    CHANNELS 3 Zrotation Xrotation Yrotation
    JOINT lThigh
    {
      OFFSET 0 -1.70687 -2.19456
      CHANNELS 3 Zrotation Xrotation Yrotation
      JOINT lShin
      {
        OFFSET 0 -36.8199 0.73152
        CHANNELS 3 Zrotation Xrotation Yrotation
        JOINT lFoot
        {
          OFFSET -0.73152 -45.1104 -5.12064
          CHANNELS 3 Zrotation Xrotation Yrotation
          End Site
          {
            OFFSET 1.1221 -3.69964 12.103
          }
        }
      }
    }
  }
}
MOTION
Frames:	4
Frame Time:	0.03333
-0.48661306500434875 38.05364370346069 0.2127092331647873 -3.142582416534424 0.3261565566062927 2.391791343688965 -1.6596368551254272 10.064966201782227 2.440356969833374 2.4604852199554443 -7.642571449279785 1.2422007322311401 -3.257920980453491 11.083666801452637 -2.4331910610198975 5.658909797668457 -15.805352210998535 -3.0971102714538574 0.04021149128675461 0.17269377410411835 0.15538321435451508 -0.1131691187620163 -0.15899589657783508 -0.06704774498939514 -0.03554278612136841 0.27186062932014465 -0.17054075002670288 22.327800750732422 15.325109481811523 13.552030563354492 -20.679655075073242 -13.333672523498535 30.22163200378418 -0.01840761862695217 -7.520009517669678 -1.237746238708496 -0.11922580003738403 0.10437847673892975 0.06901510804891586 -0.010218365117907524 -0.1581633985042572 0.18870264291763306 0.17067381739616394 0.05971561372280121 0.002823763294145465 5.225527763366699 4.043162822723389 0.3375357985496521 0.14546310901641846 0.13316188752651215 -0.24032117426395416 2.999697208404541 0.9310299754142761 0.026319129392504692 0.35576242208480835 0.03988807648420334 -0.03239303454756737 7.763156890869141 0.41624799370765686 0.040211502462625504 -0.019265467301011086 -0.3299739360809326 -0.17676936089992523 2.0598981380462646 -0.6575284600257874 -0.32073524594306946 -0.10882915556430817 -0.01938343420624733 -0.21989203989505768 -26.09677505493164 16.616178512573242 -18.333520889282227 19.27555274963379 -12.420244216918945 -29.321258544921875 -0.2541271150112152 -7.357080459594727 1.0393646955490112 0.020626675337553024 0.08552566170692444 -0.13265955448150635 -0.0775192528963089 -0.20952443778514862 -0.03307388350367546 -0.33512768149375916 -0.1342523694038391 0.09953578561544418 -5.849710941314697 4.196522235870361 -0.3916391432285309 0.26381972432136536 0.1316920518875122 0.20955348014831543 -2.149843215942383 1.0860650539398193 -0.1464855670928955 -0.10985805094242096 0.29953017830848694 -0.10452068597078323 -8.10405445098877 0.5960744619369507 -0.11559818685054779 -0.16120672225952148 0.527081310749054 -0.30595487356185913 -1.4184657335281372 -0.7563545107841492 0.16394805908203125 -0.062295909970998764 -0.06291436403989792 0.0017560275737196207 -11.12053108215332 -22.170974731445312 -8.534770965576172 -0.48447585105895996 33.24415969848633 1.3639799356460571 -2.2942380905151367 -6.7411580085754395 -5.461676597595215 -0.45956775546073914 0.18914638459682465 0.15044885873794556 13.102109909057617 -21.300975799560547 9.76328182220459 0.6981329321861267 31.850854873657227 -1.5734692811965942 2.190727949142456 -7.461309432983398 9.18482780456543
0.09555183351039886 68.37080121040344 -0.03526117652654648 -4.250782012939453 -0.8296929597854614 3.8704066276550293 -3.2986550331115723 15.554436683654785 4.117687225341797 3.460024833679199 -10.612556457519531 1.29873526096344 -5.974695205688477 17.418081283569336 -4.798212051391602 9.85874080657959 -25.616485595703125 -6.614136219024658 -0.0623362734913826 -0.3156581521034241 -0.1652456670999527 0.23277869820594788 -0.06877286732196808 0.10556107014417648 0.20349447429180145 -0.3041730225086212 0.283873975276947 44.672447204589844 34.413021087646484 17.313047409057617 -29.37472915649414 -28.32699203491211 58.83293914794922 -0.10618435591459274 -10.996127128601074 -1.565661907196045 -0.05765926092863083 -0.08227792382240295 -0.2557004988193512 0.1655675321817398 0.0416593961417675 0.16714392602443695 -0.07898517698049545 0.12341544032096863 0.01554778404533863 9.184693336486816 6.647572040557861 0.5230290293693542 -0.20072199404239655 -0.4235203266143799 0.1748243123292923 3.062267780303955 0.9513139128684998 0.2318015843629837 -0.3495195806026459 -0.13524705171585083 -0.0061765569262206554 11.940837860107422 0.8604729771614075 -0.43095141649246216 0.22145061194896698 0.07705080509185791 -0.0743379220366478 2.623814821243286 -0.7526717185974121 -0.41162046790122986 0.007526484318077564 -0.026608938351273537 0.2799655497074127 -51.133697509765625 37.05043029785156 -26.90573501586914 28.28639793395996 -26.260528564453125 -55.881046295166016 0.432242214679718 -10.300662994384766 2.2418336868286133 -0.07116091996431351 -0.016705697402358055 -0.20485621690750122 0.04939721152186394 -0.013000044040381908 -0.13987764716148376 0.22925366461277008 -0.025756830349564552 0.014459778554737568 -8.85140323638916 6.565669536590576 -0.4871172606945038 -0.13855165243148804 -0.27124476432800293 0.1383305788040161 -3.3643321990966797 0.7233185172080994 -0.06385810673236847 -0.05392308160662651 -0.042620524764060974 0.2051200270652771 -11.714147567749023 0.8911644816398621 -0.05885406211018562 0.14191719889640808 -0.22124627232551575 0.06135008484125137 -2.986874580383301 -0.44475600123405457 0.38086193799972534 0.35425934195518494 -0.020035628229379654 0.03332784026861191 -24.480009078979492 -38.27227783203125 -20.388376235961914 -1.668849229812622 63.10783767700195 2.8624045848846436 -4.120843887329102 -10.626996994018555 -10.878630638122559 0.13375112414360046 -0.15234294533729553 -0.02843739464879036 27.72978973388672 -36.227481842041016 21.23236656188965 0.9544898271560669 62.03001403808594 -2.680860757827759 5.069750785827637 -11.18796157836914 14.638068199157715
0.2797449007630348 68.20707321166992 0.07554488256573677 -5.973149299621582 3.56965708732605 -1.2661136388778687 -4.833152770996094 16.71482276916504 2.472351551055908 4.091562271118164 -10.112241744995117 0.75758957862854 -6.236555576324463 15.488605499267578 -5.4718780517578125 10.279291152954102 -25.027957916259766 -8.552345275878906 0.07288188487291336 0.09622867405414581 -0.25849589705467224 0.08298938721418381 0.033853281289339066 0.21629036962985992 0.012615302577614784 0.09275666624307632 -0.2639819383621216 47.842464447021484 35.20548629760742 19.33390998840332 -27.416547775268555 -29.666770935058594 69.74153900146484 -0.07912018895149231 -11.290701866149902 -1.2251219749450684 0.2221069484949112 -0.10695620626211166 0.009987994097173214 0.28810444474220276 -0.005310525186359882 -0.24400363862514496 0.08082347363233566 0.31799378991127014 0.2990829348564148 7.753767013549805 5.661100387573242 0.32564401626586914 -0.4004839062690735 -0.11221889406442642 -0.23795489966869354 2.4412076473236084 1.069657564163208 0.13972970843315125 -0.22136831283569336 0.14638692140579224 -0.08912462741136551 10.348307609558105 0.8834130167961121 -0.11331316828727722 0.14977537095546722 0.2214786410331726 0.1752263456583023 2.2537999153137207 -0.813531219959259 0.12264031916856766 0.300910621881485 -0.07352978736162186 -0.1542094200849533 -51.66883087158203 45.627357482910156 -32.039241790771484 27.889244079589844 -29.009225845336914 -67.43801879882812 0.25291672348976135 -16.54366683959961 2.2827389240264893 0.12045290321111679 -0.1577487736940384 -0.15165042877197266 0.06223053112626076 0.0942213386297226 -0.10520465672016144 0.02402012050151825 0.2973450720310211 -0.0957871526479721 -7.66478157043457 5.6187920570373535 -0.7878994345664978 0.10123476386070251 -0.3086026906967163 0.0053584692068398 -3.131549596786499 1.3739829063415527 -0.0047205109149217606 -0.05576590448617935 -0.009871026501059532 0.4000607132911682 -10.476386070251465 0.525056779384613 0.5033305883407593 -0.19897285103797913 -0.02835175022482872 0.1521323025226593 -2.5099759101867676 -0.6412481069564819 -0.12890279293060303 0.03415287658572197 0.5246236324310303 0.06191729009151459 -35.77543258666992 -51.87932205200195 -30.058307647705078 -2.7298734188079834 76.84690856933594 3.4087188243865967 -1.5867862701416016 -8.31595516204834 -5.429111480712891 0.30645301938056946 -0.064747653901577 -0.2717868983745575 24.380916595458984 -34.34516525268555 17.642873764038086 1.3200494050979614 67.0143051147461 -2.5055007934570312 6.014870643615723 -12.72148609161377 18.356678009033203
0.23590084165334702 63.03475499153137 -0.20613698288798332 -12.072881698608398 10.919366836547852 -17.49299430847168 -7.844358921051025 20.348814010620117 -1.6583657264709473 5.219294548034668 -9.993706703186035 -0.3914734423160553 -6.304388523101807 13.674034118652344 -6.5412445068359375 11.481413841247559 -22.534832000732422 -9.750511169433594 0.36013224720954895 -0.0012995623983442783 0.2711026072502136 0.8902308344841003 0.05272994190454483 -0.36757948994636536 -0.1534288078546524 0.02585085667669773 -0.020938239991664886 40.999839782714844 18.43414306640625 19.40203857421875 -26.611339569091797 -27.259960174560547 64.25241088867188 0.1790277063846588 -14.588118553161621 -1.8473458290100098 0.20394498109817505 0.4772077798843384 -0.06709187477827072 0.04862024262547493 0.28653576970100403 0.5396497249603271 0.2646639049053192 0.5331276655197144 0.44827115535736084 6.815390110015869 5.380445957183838 0.25432780385017395 -0.23218050599098206 0.16527758538722992 -1.098836064338684 2.620466947555542 0.7447540163993835 0.35180068016052246 -0.43779489398002625 0.6561433672904968 -0.2949731647968292 10.352155685424805 0.8251557350158691 -0.605881929397583 0.8348818421363831 -0.16981633007526398 0.2869860827922821 2.1022555828094482 -1.2047234773635864 0.7231637239456177 0.8439188003540039 0.03411995247006416 -0.29972732067108154 -30.84379768371582 41.996498107910156 -43.53945541381836 27.28909683227539 -28.16158676147461 -64.84217834472656 0.5128961801528931 -23.13604164123535 2.7150115966796875 0.7847272753715515 -0.681584358215332 -0.49744266271591187 -0.7305927872657776 -0.38960641622543335 -0.12980663776397705 -0.3180955648422241 0.16828349232673645 0.0399341844022274 -6.660639762878418 5.087189674377441 -0.4249933362007141 -0.2600105106830597 -0.5244911313056946 0.2373170703649521 -2.984588861465454 1.7676275968551636 0.3451467752456665 -0.5349699258804321 0.6415694952011108 1.0284472703933716 -9.741827011108398 0.5985376834869385 0.36015191674232483 -0.44392186403274536 0.15782198309898376 -0.05200045928359032 -2.14663028717041 -0.4295721650123596 -0.20202913880348206 0.20451900362968445 0.83380126953125 -0.174239844083786 -63.723209381103516 -66.51192474365234 -57.07573699951172 -0.624846875667572 83.44670104980469 0.9463142156600952 1.2580472230911255 -1.1733728647232056 4.736493110656738 -0.20417308807373047 -0.16543804109096527 -0.3523615002632141 10.600775718688965 -11.847535133361816 6.07597017288208 0.3766395151615143 48.72652053833008 -1.6168370246887207 8.855494499206543 -14.60110092163086 24.937807083129883
